<?xml version="1.0" encoding="utf-8"?>
<!-- Generator: Adobe Illustrator 17.0.0, SVG Export Plug-In . SVG Version: 6.00 Build 0)  -->
<!DOCTYPE svg PUBLIC "-//W3C//DTD SVG 1.1//EN" "http://www.w3.org/Graphics/SVG/1.1/DTD/svg11.dtd">
<svg version="1.1" id="Layer_1" xmlns="http://www.w3.org/2000/svg" xmlns:xlink="http://www.w3.org/1999/xlink" x="0px" y="0px"
	 width="600px" height="600px" viewBox="0 0 600 600" enable-background="new 0 0 600 600" xml:space="preserve">
<g>
	<defs>
		<path id="SVGID_1_" d="M384.019,10.576c-2.024-0.042-4.16,0.24-6.352,0.891c-0.283,0.086-0.58,0.171-0.863,0.27L205.343,69.05
			c-4.698,1.57-9.109,4.569-12.93,8.501c-5.801,5.97-10.244,14.093-12.282,22.722c-0.806,3.367-1.216,6.82-1.216,10.23V565.6
			c0,0.58,0.014,1.16,0.028,1.741c0.028,0.495,0.057,0.976,0.099,1.456v0.099c0.184,2.179,0.523,4.203,1.048,6.071
			c3.777,14.19,16.285,19.82,27.913,19.82c0,0,10.161-2.234,13.711-10.893l155.09-51.84c14.502-4.836,26.287-23.245,26.414-41.128
			c0.014-0.099,0.014-0.212,0.014-0.311V35.519c0-2.179-0.17-4.245-0.509-6.198l10.426,10.443c0-24.363-19.807-29.203-29.13-29.203
			V10.576z"/>
	</defs>
	<clipPath id="SVGID_2_">
		<use xlink:href="#SVGID_1_"  overflow="visible"/>
	</clipPath>
	
		<linearGradient id="SVGID_3_" gradientUnits="userSpaceOnUse" x1="5.0234" y1="720.4524" x2="6.5945" y2="720.4524" gradientTransform="matrix(137.4752 71.4392 71.4392 -137.4752 -52072.8281 98879.1484)">
		<stop  offset="0" style="stop-color:#ACACAC"/>
		<stop  offset="1" style="stop-color:#12100B"/>
	</linearGradient>
	<polygon clip-path="url(#SVGID_2_)" fill="url(#SVGID_3_)" points="228.718,-85.306 652.204,134.758 363.346,690.627 
		-60.14,470.562 	"/>
</g>
<g>
	<defs>
		<path id="SVGID_4_" d="M376.804,11.737L205.343,69.05c-4.698,1.57-9.109,4.569-12.93,8.501c4.118,2.547,12.549,4.783,29.514,4.585
			c38.212-0.452,180.627-58.701,180.627-58.701s-9.422-6.322-24.887-11.969C377.384,11.553,377.087,11.638,376.804,11.737"/>
	</defs>
	<clipPath id="SVGID_5_">
		<use xlink:href="#SVGID_4_"  overflow="visible"/>
	</clipPath>
	<defs>
		<filter id="Adobe_OpacityMaskFilter" filterUnits="userSpaceOnUse" x="171.152" y="-51.576" width="252.661" height="196.952">
			<feColorMatrix  type="matrix" values="1 0 0 0 0  0 1 0 0 0  0 0 1 0 0  0 0 0 1 0"/>
		</filter>
	</defs>
	<mask maskUnits="userSpaceOnUse" x="171.152" y="-51.576" width="252.661" height="196.952" id="SVGID_6_">
		<g filter="url(#Adobe_OpacityMaskFilter)">
			
				<linearGradient id="SVGID_7_" gradientUnits="userSpaceOnUse" x1="4.6991" y1="719.9132" x2="6.2702" y2="719.9132" gradientTransform="matrix(126.0695 -42.023 -42.023 -126.0695 29837.4453 91043.6563)">
				<stop  offset="0" style="stop-color:#808080"/>
				<stop  offset="1" style="stop-color:#000000"/>
			</linearGradient>
			<polygon clip-path="url(#SVGID_5_)" fill="url(#SVGID_7_)" points="171.152,18.553 381.539,-51.575 423.813,75.247 
				213.427,145.376 			"/>
		</g>
	</mask>
	
		<linearGradient id="SVGID_8_" gradientUnits="userSpaceOnUse" x1="4.6991" y1="719.9132" x2="6.2702" y2="719.9132" gradientTransform="matrix(126.0695 -42.023 -42.023 -126.0695 29837.4492 91043.6641)">
		<stop  offset="0" style="stop-color:#FFFFFF"/>
		<stop  offset="1" style="stop-color:#FFFFFF"/>
	</linearGradient>
	<polygon clip-path="url(#SVGID_5_)" mask="url(#SVGID_6_)" fill="url(#SVGID_8_)" points="171.152,18.553 381.539,-51.576 
		423.813,75.247 213.427,145.376 	"/>
</g>
<g>
	<defs>
		<path id="SVGID_9_" d="M386.707,15.988l-171.451,57.31c-11.809,3.947-21.828,16.89-25.21,31.22
			c-0.803,3.367-1.225,6.819-1.225,10.23v455.096c0,17.982,11.854,28.65,26.436,23.776l171.451-57.31
			c14.503-4.849,26.299-23.251,26.425-41.134c0.013-0.102,0.013-0.217,0.013-0.316V39.763c0-15.036-8.285-24.956-19.526-24.954
			C391.416,14.808,389.097,15.19,386.707,15.988"/>
	</defs>
	<clipPath id="SVGID_10_">
		<use xlink:href="#SVGID_9_"  overflow="visible"/>
	</clipPath>
	
		<linearGradient id="SVGID_11_" gradientUnits="userSpaceOnUse" x1="5.5093" y1="720.1063" x2="7.0804" y2="720.1063" gradientTransform="matrix(109.6535 32.3624 63.1098 -135.4382 -45941.5273 97601.4219)">
		<stop  offset="0" style="stop-color:#ACACAC"/>
		<stop  offset="1" style="stop-color:#12100B"/>
	</linearGradient>
	<polygon clip-path="url(#SVGID_10_)" fill="url(#SVGID_11_)" points="215.94,-43.395 652.242,85.372 386.024,656.695 
		-50.278,527.928 	"/>
</g>
<g>
	<defs>
		<path id="SVGID_12_" d="M388.06,95.388v418.338l15.446-5.163c5.323-1.78,9.639-8.549,9.639-15.117V87.003L388.06,95.388z"/>
	</defs>
	<clipPath id="SVGID_13_">
		<use xlink:href="#SVGID_12_"  overflow="visible"/>
	</clipPath>
	<defs>
		<filter id="Adobe_OpacityMaskFilter_1_" filterUnits="userSpaceOnUse" x="388.06" y="79.17" width="25.085" height="442.39">
			<feColorMatrix  type="matrix" values="1 0 0 0 0  0 1 0 0 0  0 0 1 0 0  0 0 0 1 0"/>
		</filter>
	</defs>
	<mask maskUnits="userSpaceOnUse" x="388.06" y="79.17" width="25.085" height="442.39" id="SVGID_14_">
		<g filter="url(#Adobe_OpacityMaskFilter_1_)">
			
				<linearGradient id="SVGID_15_" gradientUnits="userSpaceOnUse" x1="2.261" y1="719.8279" x2="3.8321" y2="719.8279" gradientTransform="matrix(0 -194.3223 -184.1203 57.5 132935.5625 -40421.1719)">
				<stop  offset="0" style="stop-color:#808080"/>
				<stop  offset="1" style="stop-color:#000000"/>
			</linearGradient>
			<polygon clip-path="url(#SVGID_13_)" fill="url(#SVGID_15_)" points="388.06,521.56 388.06,87.003 413.144,79.17 
				413.144,513.726 			"/>
		</g>
	</mask>
	
		<linearGradient id="SVGID_16_" gradientUnits="userSpaceOnUse" x1="2.261" y1="719.8279" x2="3.8321" y2="719.8279" gradientTransform="matrix(0 -194.3223 -184.1203 57.5 132935.5625 -40421.1719)">
		<stop  offset="0" style="stop-color:#FFFFFF"/>
		<stop  offset="1" style="stop-color:#FFFFFF"/>
	</linearGradient>
	<polygon clip-path="url(#SVGID_13_)" mask="url(#SVGID_14_)" fill="url(#SVGID_16_)" points="388.06,521.56 388.06,87.003 
		413.144,79.17 413.144,513.726 	"/>
</g>
<g>
	<defs>
		<path id="SVGID_17_" d="M388.053,19.745L216.596,77.057c-12.805,4.28-23.185,20.558-23.185,36.361V568.51
			c0,15.801,10.38,25.141,23.185,20.861l171.458-57.313c12.803-4.28,23.182-20.558,23.182-36.359V40.605
			c0-13.205-7.249-21.899-17.107-21.899C392.193,18.706,390.156,19.042,388.053,19.745"/>
	</defs>
	<clipPath id="SVGID_18_">
		<use xlink:href="#SVGID_17_"  overflow="visible"/>
	</clipPath>
	
		<linearGradient id="SVGID_19_" gradientUnits="userSpaceOnUse" x1="5.0304" y1="720.3681" x2="6.6015" y2="720.3681" gradientTransform="matrix(167.4457 42.9943 90.2843 -204.9191 -65754.5 147661.7656)">
		<stop  offset="0" style="stop-color:#4E4E4D"/>
		<stop  offset="0.043" style="stop-color:#4E4E4D"/>
		<stop  offset="1" style="stop-color:#313130"/>
	</linearGradient>
	<polygon clip-path="url(#SVGID_18_)" fill="url(#SVGID_19_)" points="215.548,-31.54 638.803,77.138 389.098,643.897 
		-34.158,535.22 	"/>
</g>
<g>
	<defs>
		<path id="SVGID_20_" d="M394.168,23.453c-0.757-0.019-1.447,0.099-2.042,0.195c-0.591,0.068-1.094,0.196-1.5,0.322
			c-0.812,0.226-1.23,0.343-1.23,0.343s0.418-0.112,1.229-0.327c0.407-0.121,0.911-0.244,1.499-0.3
			c0.594-0.09,1.28-0.198,2.033-0.168c1.526-0.06,3.354,0.206,5.285,1.04c1.925,0.834,3.939,2.308,5.625,4.695
			c1.713,2.347,2.932,5.764,3.347,9.926c0.145,2.104,0.099,4.396,0.091,6.756c-0.011,2.36-0.02,4.805-0.03,7.331
			c-0.031,10.099-0.066,21.495-0.102,33.924c-0.072,49.695-0.168,115.953-0.266,182.214c0.096,66.193,0.192,132.39,0.264,182.036
			c0.038,12.406,0.071,23.776,0.102,33.855c0.009,2.519,0.02,4.957,0.031,7.31c0.006,2.361,0.053,4.603-0.093,6.825
			c-0.413,4.42-1.634,8.668-3.347,12.154c-1.684,3.515-3.698,6.335-5.623,8.456c-1.931,2.126-3.76,3.614-5.285,4.574
			c-0.753,0.533-1.441,0.883-2.033,1.193c-0.589,0.336-1.092,0.55-1.499,0.699c-0.811,0.328-1.229,0.497-1.229,0.497
			s0.418-0.163,1.23-0.481c0.407-0.145,0.911-0.352,1.502-0.683c0.594-0.299,1.284-0.643,2.041-1.167
			c1.533-0.944,3.376-2.416,5.331-4.533c1.948-2.112,3.997-4.933,5.722-8.468c1.755-3.516,3.026-7.783,3.483-12.315
			c0.165-2.231,0.14-4.514,0.151-6.867c0.008-2.358,0.019-4.805,0.031-7.331c0.03-10.099,0.063-21.493,0.101-33.924
			c0.071-49.693,0.168-115.953,0.264-182.212c-0.096-66.195-0.193-132.391-0.264-182.036c-0.038-12.406-0.072-23.776-0.102-33.855
			c-0.011-2.519-0.022-4.959-0.031-7.311c-0.011-2.35,0.016-4.633-0.149-6.776c-0.457-4.209-1.728-7.637-3.483-9.978
			c-1.725-2.38-3.774-3.832-5.722-4.641c-1.72-0.712-3.353-0.983-4.765-0.983C394.541,23.438,394.354,23.443,394.168,23.453"/>
	</defs>
	<clipPath id="SVGID_21_">
		<use xlink:href="#SVGID_20_"  overflow="visible"/>
	</clipPath>
	<defs>
		<filter id="Adobe_OpacityMaskFilter_2_" filterUnits="userSpaceOnUse" x="389.395" y="17.233" width="19.856" height="515.969">
			<feColorMatrix  type="matrix" values="1 0 0 0 0  0 1 0 0 0  0 0 1 0 0  0 0 0 1 0"/>
		</filter>
	</defs>
	<mask maskUnits="userSpaceOnUse" x="389.395" y="17.233" width="19.856" height="515.969" id="SVGID_22_">
		<g filter="url(#Adobe_OpacityMaskFilter_2_)">
			
				<linearGradient id="SVGID_23_" gradientUnits="userSpaceOnUse" x1="-1.793" y1="726.8463" x2="-0.2219" y2="726.8463" gradientTransform="matrix(-40.0349 12.5027 0 42.2532 373.1555 -30428.1602)">
				<stop  offset="0" style="stop-color:#808080"/>
				<stop  offset="1" style="stop-color:#000000"/>
			</linearGradient>
			<polygon clip-path="url(#SVGID_21_)" fill="url(#SVGID_23_)" points="409.251,527.001 389.395,533.202 389.395,23.434 
				409.251,17.233 			"/>
		</g>
	</mask>
	
		<linearGradient id="SVGID_24_" gradientUnits="userSpaceOnUse" x1="-1.793" y1="726.8463" x2="-0.2219" y2="726.8463" gradientTransform="matrix(-40.0349 12.5027 0 42.2532 373.1555 -30428.1582)">
		<stop  offset="0" style="stop-color:#FFFFFF"/>
		<stop  offset="1" style="stop-color:#FFFFFF"/>
	</linearGradient>
	<polygon clip-path="url(#SVGID_21_)" mask="url(#SVGID_22_)" fill="url(#SVGID_24_)" points="409.251,527.001 389.395,533.202 
		389.395,23.434 409.251,17.233 	"/>
</g>
<g>
	<defs>
		<path id="SVGID_25_" d="M196.875,567.556V112.46c0-14.33,9.449-29.148,21.061-33.03l171.458-57.312
			c11.615-3.882,21.063,4.619,21.063,18.949v455.096c0,14.33-9.447,29.148-21.063,33.031l-171.458,57.312
			c-1.903,0.636-3.749,0.94-5.502,0.94C203.48,587.447,196.875,579.539,196.875,567.556 M389.394,20.703L217.936,78.015
			c-12.244,4.094-22.208,19.719-22.208,34.83V567.94c0,15.111,9.964,24.076,22.208,19.983l171.458-57.313
			c12.247-4.094,22.21-19.718,22.21-34.83V40.685c0-12.634-6.966-20.971-16.407-20.973
			C393.345,19.712,391.401,20.032,389.394,20.703"/>
	</defs>
	<clipPath id="SVGID_26_">
		<use xlink:href="#SVGID_25_"  overflow="visible"/>
	</clipPath>
	<defs>
		<filter id="Adobe_OpacityMaskFilter_3_" filterUnits="userSpaceOnUse" x="-34.902" y="-34.271" width="677.136" height="678.794">
			<feColorMatrix  type="matrix" values="1 0 0 0 0  0 1 0 0 0  0 0 1 0 0  0 0 0 1 0"/>
		</filter>
	</defs>
	<mask maskUnits="userSpaceOnUse" x="-34.902" y="-34.271" width="677.136" height="678.794" id="SVGID_27_">
		<g filter="url(#Adobe_OpacityMaskFilter_3_)">
			
				<linearGradient id="SVGID_28_" gradientUnits="userSpaceOnUse" x1="4.6829" y1="720.5803" x2="6.254" y2="720.5803" gradientTransform="matrix(241.8858 66.0929 134.1971 -297.1976 -97725.5156 214096.625)">
				<stop  offset="0" style="stop-color:#808080"/>
				<stop  offset="0.5054" style="stop-color:#000000"/>
				<stop  offset="1" style="stop-color:#333333"/>
			</linearGradient>
			<polygon clip-path="url(#SVGID_26_)" fill="url(#SVGID_28_)" points="219.437,-34.271 642.233,81.254 387.894,644.523 
				-34.902,528.999 			"/>
		</g>
	</mask>
	
		<linearGradient id="SVGID_29_" gradientUnits="userSpaceOnUse" x1="4.6829" y1="720.5803" x2="6.254" y2="720.5803" gradientTransform="matrix(241.8858 66.0929 134.1971 -297.1977 -97725.5313 214096.6406)">
		<stop  offset="0" style="stop-color:#FFFFFF"/>
		<stop  offset="0.5054" style="stop-color:#FFFFFF"/>
		<stop  offset="1" style="stop-color:#FFFFFF"/>
	</linearGradient>
	<polygon clip-path="url(#SVGID_26_)" mask="url(#SVGID_27_)" fill="url(#SVGID_29_)" points="219.437,-34.271 642.233,81.254 
		387.894,644.523 -34.902,528.998 	"/>
</g>
<g>
	<defs>
		<path id="SVGID_30_" d="M315.704,57.655l-24.078,8.047c-0.738,0.248-1.335,1.186-1.335,2.099c0,0.911,0.597,1.45,1.335,1.203
			l24.078-8.047c0.737-0.248,1.335-1.186,1.335-2.099c0-0.762-0.418-1.263-0.987-1.263
			C315.941,57.595,315.825,57.615,315.704,57.655"/>
	</defs>
	<clipPath id="SVGID_31_">
		<use xlink:href="#SVGID_30_"  overflow="visible"/>
	</clipPath>
	
		<linearGradient id="SVGID_32_" gradientUnits="userSpaceOnUse" x1="-46.638" y1="660.2073" x2="-45.0669" y2="660.2073" gradientTransform="matrix(0 -3.1348 -2.9702 0.9276 2264.6287 -691.7142)">
		<stop  offset="0" style="stop-color:#4A4949"/>
		<stop  offset="1" style="stop-color:#333332"/>
	</linearGradient>
	<polygon clip-path="url(#SVGID_31_)" fill="url(#SVGID_32_)" points="290.291,77.605 290.291,57.595 317.04,49.241 317.04,69.251 	
		"/>
</g>
<g>
	<defs>
		<path id="SVGID_33_" d="M324.897,52.99c-1.449,0.485-2.625,2.328-2.625,4.12c0,1.791,1.177,2.848,2.625,2.366
			c1.453-0.486,2.63-2.332,2.63-4.121c0-1.497-0.822-2.482-1.94-2.482C325.367,52.872,325.136,52.91,324.897,52.99"/>
	</defs>
	<clipPath id="SVGID_34_">
		<use xlink:href="#SVGID_33_"  overflow="visible"/>
	</clipPath>
	
		<linearGradient id="SVGID_35_" gradientUnits="userSpaceOnUse" x1="-26.047" y1="683.5568" x2="-24.4759" y2="683.5568" gradientTransform="matrix(0 -5.3072 -5.0286 1.5704 3762.24 -1149.4497)">
		<stop  offset="0" style="stop-color:#4A4949"/>
		<stop  offset="1" style="stop-color:#333332"/>
	</linearGradient>
	<polygon clip-path="url(#SVGID_34_)" fill="url(#SVGID_35_)" points="322.272,61.599 322.272,52.872 327.527,51.231 
		327.527,59.958 	"/>
</g>
<g>
	<defs>
		<path id="SVGID_36_" d="M324.897,53.934c-1.027,0.342-1.862,1.651-1.862,2.921c0,1.27,0.834,2.02,1.862,1.675
			c1.032-0.343,1.865-1.651,1.865-2.921c0-1.06-0.581-1.76-1.375-1.76C325.232,53.849,325.067,53.876,324.897,53.934"/>
	</defs>
	<clipPath id="SVGID_37_">
		<use xlink:href="#SVGID_36_"  overflow="visible"/>
	</clipPath>
	
		<radialGradient id="SVGID_38_" cx="162.7922" cy="610.6873" r="1.5712" gradientTransform="matrix(1.1857 -0.3964 0 -1.4633 131.8691 1014.4066)" gradientUnits="userSpaceOnUse">
		<stop  offset="0" style="stop-color:#4A4949"/>
		<stop  offset="1" style="stop-color:#333332"/>
	</radialGradient>
	<polygon clip-path="url(#SVGID_37_)" fill="url(#SVGID_38_)" points="323.035,53.849 326.762,52.603 326.762,58.875 
		323.035,60.121 	"/>
</g>
<g>
	<defs>
		<path id="SVGID_39_" d="M281.669,68.384c-1.031,0.344-1.865,1.653-1.865,2.922c0,1.268,0.834,2.019,1.865,1.675
			c1.029-0.343,1.862-1.651,1.862-2.922c0-1.061-0.583-1.758-1.375-1.758C282,68.301,281.837,68.327,281.669,68.384"/>
	</defs>
	<clipPath id="SVGID_40_">
		<use xlink:href="#SVGID_39_"  overflow="visible"/>
	</clipPath>
	
		<linearGradient id="SVGID_41_" gradientUnits="userSpaceOnUse" x1="-46.3984" y1="663.2866" x2="-44.8273" y2="663.2866" gradientTransform="matrix(0 -3.1558 -2.9901 0.9338 2264.9839 -691.2021)">
		<stop  offset="0" style="stop-color:#4A4949"/>
		<stop  offset="1" style="stop-color:#333332"/>
	</linearGradient>
	<polygon clip-path="url(#SVGID_40_)" fill="url(#SVGID_41_)" points="279.804,74.489 279.804,68.301 283.531,67.137 
		283.531,73.325 	"/>
</g>
<g>
	<defs>
		<path id="SVGID_42_" d="M389.397,27.52l-34.964,11.688c-2.215,0.742-4.162,3.2-4.778,6.03c-2.346,10.82-9.788,20.217-18.25,23.047
			l-55.477,18.543c-8.464,2.83-15.908-1.592-18.253-10.842c-0.613-2.421-2.561-3.577-4.776-2.836l-34.964,11.686
			c-9.213,3.079-16.681,14.792-16.681,26.161v455.099c0,11.367,7.468,18.088,16.681,15.009l171.462-57.315
			c9.205-3.076,16.681-14.813,16.681-26.161V42.531c0-9.488-5.227-15.755-12.321-15.755
			C392.366,26.776,390.905,27.018,389.397,27.52"/>
	</defs>
	<clipPath id="SVGID_43_">
		<use xlink:href="#SVGID_42_"  overflow="visible"/>
	</clipPath>
	<polygon clip-path="url(#SVGID_43_)" fill="#9B1A16" points="413.022,399.27 198.113,471.45 198.113,88.486 413.022,16.307 	"/>
	<polygon clip-path="url(#SVGID_43_)" fill="#DA1719" points="413.022,427.178 198.113,499.357 198.113,116.394 413.022,44.214 	"/>
	<polygon clip-path="url(#SVGID_43_)" fill="#DADADA" points="413.022,530.506 198.113,602.685 198.113,281.016 413.022,208.835 	
		"/>
	<path clip-path="url(#SVGID_43_)" fill="#FFFFFF" d="M305.572,198.059c-5.1,1.713-9.991,1.205-13.776-1.43
		c-4.328-3.009-6.812-8.563-6.812-15.238c0-13.009,9.235-26.694,20.588-30.507c11.348-3.812,20.58,3.672,20.58,16.679
		c0,6.682-2.484,13.909-6.816,19.826C315.552,192.56,310.662,196.35,305.572,198.059"/>
	<path clip-path="url(#SVGID_43_)" fill="#FFFFFF" d="M325.002,167.951c0,6.574-2.482,13.32-6.434,18.718
		c-3.447,4.709-8.006,8.396-12.996,10.073c-4.998,1.68-9.565,1.046-13.004-1.35c-3.951-2.745-6.434-7.815-6.434-14.387
		c0-12.299,8.706-25.198,19.438-28.802C316.306,148.598,325.002,155.652,325.002,167.951"/>
	<path clip-path="url(#SVGID_43_)" fill="#3C3C3B" d="M318.568,183.842v2.826c-3.447,4.709-8.008,8.398-12.996,10.073
		c-4.998,1.68-9.565,1.046-13.004-1.348v-2.817c0-6.229,4.08-12.723,9.337-15.223c-2.79-0.512-4.731-3.078-4.731-6.816
		c0-5.094,3.603-10.44,8.057-11.936c4.446-1.494,8.057,1.43,8.057,6.525c0,3.691-1.89,7.505-4.625,9.901
		C314.196,173.597,318.568,177.391,318.568,183.842"/>
	<g clip-path="url(#SVGID_43_)">
		<path fill="#FFFFFF" d="M266.124,223.144c1.048-0.605,2.702-1.35,4.384-1.915c2.398-0.806,3.942-0.851,5.1-0.164
			c0.964,0.497,1.544,1.566,1.544,3.241c0,2.055-1.186,4.254-3.143,5.733v0.063c1.765-0.087,3.832,0.894,3.832,4.054
			c0,1.833-0.634,3.437-1.571,4.794c-1.296,1.794-3.391,3.129-6.424,4.148c-1.654,0.556-2.922,0.856-3.722,0.998V223.144z
			 M268.522,231.06l2.178-0.731c2.537-0.853,4.025-2.869,4.025-4.923c0-2.497-1.654-2.921-4.08-2.106
			c-1.103,0.371-1.737,0.678-2.124,0.903V231.06z M268.522,241.267c0.469-0.063,1.158-0.262,2.013-0.549
			c2.482-0.834,4.771-2.646,4.771-5.742c0-2.907-2.178-3.377-4.797-2.497l-1.986,0.667V241.267z"/>
		<path fill="#FFFFFF" d="M283.689,218.666c0.027,0.939-0.58,1.901-1.544,2.226c-0.854,0.287-1.462-0.268-1.462-1.216
			c0-0.979,0.634-1.951,1.517-2.248C283.109,217.122,283.689,217.687,283.689,218.666z M280.987,239.166v-15.295l2.426-0.815v15.295
			L280.987,239.166z"/>
		<path fill="#FFFFFF" d="M291.051,216.825l-5.651,1.897v-2.338l13.757-4.62v2.338l-5.679,1.907v18.961l-2.427,0.815V216.825z"/>
		<path fill="#FFFFFF" d="M301.228,211.354c1.048-0.605,2.702-1.35,4.384-1.915c2.398-0.806,3.942-0.85,5.101-0.164
			c0.964,0.497,1.544,1.566,1.544,3.241c0,2.055-1.187,4.254-3.144,5.733v0.063c1.765-0.087,3.832,0.894,3.832,4.054
			c0,1.833-0.634,3.437-1.571,4.794c-1.296,1.793-3.391,3.129-6.424,4.148c-1.654,0.556-2.922,0.855-3.722,0.997V211.354z
			 M303.626,219.27l2.178-0.731c2.537-0.852,4.025-2.869,4.025-4.922c0-2.497-1.654-2.921-4.08-2.106
			c-1.103,0.37-1.737,0.678-2.123,0.902V219.27z M303.626,229.477c0.469-0.063,1.158-0.262,2.013-0.549
			c2.481-0.834,4.771-2.646,4.771-5.742c0-2.907-2.179-3.376-4.798-2.497l-1.985,0.667V229.477z"/>
		<path fill="#FFFFFF" d="M318.792,206.876c0.027,0.939-0.579,1.901-1.544,2.226c-0.854,0.287-1.462-0.268-1.462-1.216
			c0-0.979,0.635-1.951,1.517-2.248C318.213,205.332,318.792,205.896,318.792,206.876z M316.09,227.376v-15.295l2.427-0.814v15.295
			L316.09,227.376z"/>
		<path fill="#FFFFFF" d="M322.543,202.772l2.426-0.814v22.437l-2.426,0.814V202.772z"/>
		<path fill="#FFFFFF" d="M329.051,200.587l2.426-0.815v22.437l-2.426,0.815V200.587z"/>
	</g>
	<path clip-path="url(#SVGID_43_)" fill="#FFFFFF" d="M358.461,275.45l-105.788,35.53c-5.512,1.851-9.98-1.056-9.98-6.492v-1.533
		c0-5.436,4.468-11.345,9.98-13.196l105.788-35.53c5.512-1.852,9.981,1.054,9.981,6.492v1.533
		C368.443,267.69,363.973,273.598,358.461,275.45"/>
	<path clip-path="url(#SVGID_43_)" fill="#FFFFFF" d="M358.461,304.615l-105.788,35.53c-5.512,1.851-9.98-1.056-9.98-6.492v-1.533
		c0-5.436,4.468-11.345,9.98-13.196l105.788-35.53c5.512-1.852,9.981,1.056,9.981,6.492v1.533
		C368.443,296.856,363.973,302.765,358.461,304.615"/>
	<path clip-path="url(#SVGID_43_)" fill="#FFFFFF" d="M358.461,333.781l-105.788,35.53c-5.512,1.851-9.98-1.054-9.98-6.492v-1.533
		c0-5.436,4.468-11.344,9.98-13.196l105.788-35.53c5.512-1.852,9.981,1.056,9.981,6.492v1.533
		C368.443,326.023,363.973,331.931,358.461,333.781"/>
	<path clip-path="url(#SVGID_43_)" fill="#575756" d="M358.461,362.948l-105.788,35.53c-5.512,1.851-9.98-1.056-9.98-6.492v-1.533
		c0-5.436,4.468-11.345,9.98-13.196l105.788-35.53c5.512-1.852,9.981,1.056,9.981,6.492v1.533
		C368.443,355.188,363.973,361.095,358.461,362.948"/>
	<path clip-path="url(#SVGID_43_)" fill="#FFFFFF" d="M241.593,115.706c-0.368,0.124-0.694,0.416-0.925,0.781l-4.168-0.971
		c0.013-0.088,0.022-0.174,0.022-0.262c0-0.798-0.564-1.257-1.262-1.023c-0.698,0.234-1.263,1.072-1.263,1.871
		c0,0.798,0.566,1.257,1.263,1.023c0.368-0.124,0.694-0.416,0.925-0.781l4.167,0.971c-0.013,0.088-0.022,0.174-0.022,0.262
		c0,0.1,0.009,0.195,0.027,0.284l-4.192,3.948c-0.229-0.193-0.55-0.256-0.905-0.137c-0.698,0.234-1.263,1.072-1.263,1.871
		c0,0.798,0.566,1.257,1.263,1.023c0.698-0.234,1.262-1.072,1.262-1.871c0-0.101-0.008-0.195-0.025-0.284l4.192-3.95
		c0.229,0.195,0.548,0.256,0.905,0.138c0.698-0.234,1.262-1.072,1.262-1.871C242.855,115.931,242.291,115.472,241.593,115.706"/>
	<path clip-path="url(#SVGID_43_)" fill="#FFFFFF" d="M220.75,123.319l-0.949,0.244c-0.086,0.024-0.159-0.02-0.185-0.105
		c-0.047-0.14-0.101-0.272-0.163-0.396c-0.038-0.077-0.03-0.185,0.028-0.28l0.625-1.031c0.072-0.121,0.069-0.262-0.009-0.327
		l-0.88-0.712c-0.079-0.063-0.204-0.027-0.288,0.086l-0.716,0.957c-0.066,0.086-0.157,0.129-0.234,0.112
		c-0.129-0.03-0.259-0.049-0.394-0.055c-0.083-0.005-0.141-0.068-0.148-0.163l-0.064-1.067c-0.008-0.124-0.099-0.192-0.211-0.154
		l-1.243,0.416c-0.11,0.038-0.203,0.166-0.211,0.297l-0.063,1.109c-0.006,0.101-0.066,0.203-0.148,0.262
		c-0.135,0.097-0.267,0.204-0.394,0.319c-0.077,0.069-0.17,0.09-0.234,0.047l-0.718-0.476c-0.083-0.056-0.209-0.009-0.288,0.107
		l-0.878,1.302c-0.079,0.116-0.082,0.262-0.009,0.333l0.625,0.611c0.057,0.055,0.066,0.159,0.028,0.259
		c-0.063,0.168-0.118,0.336-0.163,0.507c-0.028,0.102-0.101,0.195-0.185,0.229l-0.951,0.393c-0.11,0.046-0.196,0.181-0.196,0.308
		v1.423c0,0.127,0.086,0.204,0.196,0.176l0.951-0.245c0.085-0.023,0.157,0.02,0.185,0.105c0.046,0.14,0.101,0.272,0.163,0.396
		c0.038,0.077,0.028,0.187-0.028,0.28l-0.625,1.031c-0.072,0.119-0.069,0.264,0.009,0.327l0.878,0.712
		c0.079,0.063,0.204,0.027,0.288-0.085l0.718-0.958c0.064-0.086,0.157-0.129,0.234-0.11c0.127,0.028,0.259,0.047,0.394,0.053
		c0.082,0.005,0.141,0.068,0.148,0.165l0.063,1.065c0.008,0.124,0.101,0.193,0.211,0.156l1.243-0.418
		c0.112-0.038,0.203-0.167,0.211-0.295l0.064-1.111c0.006-0.101,0.064-0.203,0.148-0.262c0.135-0.097,0.266-0.204,0.394-0.319
		c0.077-0.069,0.168-0.09,0.234-0.046l0.716,0.474c0.083,0.057,0.209,0.009,0.288-0.107l0.88-1.303
		c0.079-0.116,0.082-0.262,0.009-0.333l-0.625-0.611c-0.058-0.055-0.066-0.157-0.028-0.259c0.063-0.166,0.116-0.336,0.163-0.507
		c0.027-0.102,0.099-0.195,0.185-0.231l0.949-0.391c0.112-0.046,0.196-0.181,0.196-0.308v-1.423
		C220.947,123.366,220.862,123.291,220.75,123.319 M216.541,127.841c-1.04,0.349-1.882-0.333-1.882-1.524s0.842-2.438,1.882-2.787
		c1.039-0.349,1.881,0.333,1.881,1.524C218.422,126.245,217.58,127.492,216.541,127.841"/>
	<polygon clip-path="url(#SVGID_43_)" fill="#C6C6C6" points="388.176,459.44 353.926,470.963 353.926,434.252 388.176,422.729 	"/>
	<polygon clip-path="url(#SVGID_43_)" fill="#C6C6C6" points="386.429,425.228 365.595,432.237 365.595,429.434 386.429,422.425 	
		"/>
	<polygon clip-path="url(#SVGID_43_)" fill="#C6C6C6" points="385.146,424.143 366.877,430.289 366.877,419.134 385.146,412.988 	
		"/>
	<polygon clip-path="url(#SVGID_43_)" fill="#C6C6C6" points="385.923,414.958 366.1,421.627 366.1,420.006 385.923,413.336 	"/>
	<polygon clip-path="url(#SVGID_43_)" fill="#9D9D9C" points="411.778,452.946 382.658,462.742 382.658,401.076 411.778,391.279 	
		"/>
	<polygon clip-path="url(#SVGID_43_)" fill="#9D9D9C" points="410.293,394.015 392.58,399.975 392.58,396.696 410.293,390.735 	"/>
	<polygon clip-path="url(#SVGID_43_)" fill="#9D9D9C" points="409.202,392.608 393.669,397.834 393.669,384.783 409.202,379.555 	
		"/>
	<polygon clip-path="url(#SVGID_43_)" fill="#9D9D9C" points="409.861,381.944 393.008,387.614 393.008,385.716 409.861,380.046 	
		"/>
	<polygon clip-path="url(#SVGID_43_)" fill="#C6C6C6" points="436.429,402.156 420.897,407.381 420.897,394.33 436.429,389.103 	"/>
	<polygon clip-path="url(#SVGID_43_)" fill="#C6C6C6" points="437.09,391.491 420.235,397.162 420.235,395.265 437.09,389.594 	"/>
	<polygon clip-path="url(#SVGID_43_)" fill="#9D9D9C" points="439.005,443.785 409.885,453.581 409.885,410.625 439.005,400.827 	
		"/>
	<polygon clip-path="url(#SVGID_43_)" fill="#9D9D9C" points="437.52,403.563 419.807,409.522 419.807,406.242 437.52,400.283 	"/>
	<polygon clip-path="url(#SVGID_43_)" fill="#C6C6C6" points="338.521,440.175 322.989,445.401 322.989,432.349 338.521,427.124 	
		"/>
	<polygon clip-path="url(#SVGID_43_)" fill="#C6C6C6" points="339.182,429.511 322.327,435.182 322.327,433.284 339.182,427.614 	
		"/>
	<polygon clip-path="url(#SVGID_43_)" fill="#9D9D9C" points="341.098,481.805 311.978,491.602 311.978,448.644 341.098,438.847 	
		"/>
	<polygon clip-path="url(#SVGID_43_)" fill="#9D9D9C" points="339.612,441.583 321.899,447.542 321.899,444.263 339.612,438.302 	
		"/>
	<polygon clip-path="url(#SVGID_43_)" fill="#9D9D9C" points="334.74,474.525 359.625,466.153 359.625,413.454 334.74,421.826 	"/>
	<polygon clip-path="url(#SVGID_43_)" fill="#9D9D9C" points="336.009,423.31 351.147,418.216 351.147,415.413 336.009,420.507 	"/>
	<polygon clip-path="url(#SVGID_43_)" fill="#9D9D9C" points="336.941,421.48 350.216,417.015 350.216,405.86 336.941,410.325 	"/>
	<polygon clip-path="url(#SVGID_43_)" fill="#9D9D9C" points="336.377,412.746 350.78,407.901 350.78,406.279 336.377,411.125 	"/>
	<polygon clip-path="url(#SVGID_43_)" fill="#9D9D9C" points="321.786,420.359 306.483,425.507 306.483,484.04 321.786,478.891 	"/>
	<polygon clip-path="url(#SVGID_43_)" fill="#9D9D9C" points="308.114,428.253 307.784,428.365 307.784,404.075 308.114,403.965 	
		"/>
	<polygon clip-path="url(#SVGID_43_)" fill="#9D9D9C" points="311.028,424.919 308.115,425.9 308.115,420.72 	"/>
	<polygon clip-path="url(#SVGID_43_)" fill="#C6C6C6" points="169.81,474.995 154.507,480.143 154.507,538.676 169.81,533.527 	"/>
	<polygon clip-path="url(#SVGID_43_)" fill="#C6C6C6" points="156.139,482.889 155.81,483.001 155.81,458.711 156.139,458.601 	"/>
	<polygon clip-path="url(#SVGID_43_)" fill="#C6C6C6" points="159.053,479.555 156.139,480.536 156.139,475.356 	"/>
	<polygon clip-path="url(#SVGID_43_)" fill="#9D9D9C" points="289.291,492.356 260.172,502.154 260.172,440.487 289.291,430.689 	
		"/>
	<polygon clip-path="url(#SVGID_43_)" fill="#9D9D9C" points="287.806,433.426 270.092,439.386 270.092,436.105 287.806,430.146 	
		"/>
	<polygon clip-path="url(#SVGID_43_)" fill="#C6C6C6" points="286.715,432.019 271.183,437.244 271.183,424.193 286.715,418.966 	
		"/>
	<polygon clip-path="url(#SVGID_43_)" fill="#C6C6C6" points="287.375,421.355 270.522,427.025 270.522,425.127 287.375,419.457 	
		"/>
	<polygon clip-path="url(#SVGID_43_)" fill="#C6C6C6" points="212.254,520.244 237.139,511.872 237.139,459.171 212.254,467.546 	
		"/>
	<polygon clip-path="url(#SVGID_43_)" fill="#C6C6C6" points="213.523,469.029 228.66,463.936 228.66,461.133 213.523,466.225 	"/>
	<polygon clip-path="url(#SVGID_43_)" fill="#C6C6C6" points="214.455,467.199 227.729,462.734 227.729,451.579 214.455,456.044 	
		"/>
	<polygon clip-path="url(#SVGID_43_)" fill="#C6C6C6" points="213.891,458.465 228.293,453.619 228.293,451.998 213.891,456.843 	
		"/>
	<polygon clip-path="url(#SVGID_43_)" fill="#9D9D9C" points="248.187,506.402 223.301,514.774 223.301,478.063 248.187,469.691 	
		"/>
	<polygon clip-path="url(#SVGID_43_)" fill="#9D9D9C" points="246.918,472.029 231.78,477.122 231.78,474.318 246.918,469.224 	"/>
	<polygon clip-path="url(#SVGID_43_)" fill="#9D9D9C" points="245.986,470.826 232.711,475.291 232.711,464.138 245.986,459.671 	
		"/>
	<polygon clip-path="url(#SVGID_43_)" fill="#9D9D9C" points="246.55,461.713 232.148,466.558 232.148,464.937 246.55,460.091 	"/>
	<polygon clip-path="url(#SVGID_43_)" fill="#C6C6C6" points="247.463,457.759 247.133,457.869 247.133,433.581 247.463,433.471 	
		"/>
	<polygon clip-path="url(#SVGID_43_)" fill="#C6C6C6" points="250.377,454.424 247.464,455.404 247.464,450.224 	"/>
	<polygon clip-path="url(#SVGID_43_)" fill="#9D9D9C" points="261.134,449.863 245.831,455.012 245.831,513.544 261.134,508.396 	
		"/>
	<polygon clip-path="url(#SVGID_43_)" fill="#C6C6C6" points="286.49,422.585 286.16,422.696 286.16,398.407 286.49,398.297 	"/>
	<polygon clip-path="url(#SVGID_43_)" fill="#C6C6C6" points="289.403,419.251 286.491,420.231 286.491,415.051 	"/>
	<polygon clip-path="url(#SVGID_43_)" fill="#C6C6C6" points="300.161,414.69 284.858,419.839 284.858,478.371 300.161,473.223 	"/>
	<polygon clip-path="url(#SVGID_43_)" fill="#9D9D9C" points="187.4,521.714 162.514,530.087 162.514,493.374 187.4,485.003 	"/>
	<polygon clip-path="url(#SVGID_43_)" fill="#9D9D9C" points="186.131,487.34 170.993,492.434 170.993,489.631 186.131,484.537 	"/>
	<polygon clip-path="url(#SVGID_43_)" fill="#9D9D9C" points="185.199,486.138 171.924,490.603 171.924,479.45 185.199,474.983 	"/>
	<polygon clip-path="url(#SVGID_43_)" fill="#9D9D9C" points="185.763,477.024 171.361,481.87 171.361,480.248 185.763,475.403 	"/>
	<polygon clip-path="url(#SVGID_43_)" fill="#9D9D9C" points="310.059,494.504 285.174,502.877 285.174,466.164 310.059,457.793 	
		"/>
	<polygon clip-path="url(#SVGID_43_)" fill="#9D9D9C" points="308.79,460.13 293.652,465.224 293.652,462.421 308.79,457.327 	"/>
	<polygon clip-path="url(#SVGID_43_)" fill="#9D9D9C" points="307.857,458.928 294.583,463.393 294.583,452.24 307.857,447.773 	"/>
	<polygon clip-path="url(#SVGID_43_)" fill="#9D9D9C" points="308.422,449.814 294.019,454.66 294.019,453.038 308.422,448.193 	"/>
	<polygon clip-path="url(#SVGID_43_)" fill="#706F6F" points="149.912,627.611 149.912,531.949 154.508,530.403 154.508,511.733 
		155.465,511.411 155.465,510.737 156.169,510.5 156.169,504.737 155.743,504.88 155.743,503.656 156.169,503.513 156.169,503.053 
		166.188,499.683 166.188,500.143 166.614,499.999 166.614,501.223 166.188,501.366 166.188,507.13 166.892,506.893 
		166.892,507.567 173.289,505.414 173.289,508.038 179.85,505.829 179.85,502.274 180.832,501.944 180.832,486.099 181.082,486.016 
		181.082,498.66 182.881,501.254 190.674,498.632 190.674,491.312 198.16,488.793 198.16,488.005 198.984,487.728 198.984,480.983 
		198.486,481.151 198.486,479.72 198.984,479.552 198.984,479.013 210.707,475.069 210.707,475.607 211.206,475.44 211.206,476.872 
		210.707,477.04 210.707,483.783 211.531,483.506 211.531,484.295 212.651,483.918 212.651,498.036 218.711,495.999 218.711,495.21 
		219.534,494.933 219.534,488.19 219.034,488.357 219.034,486.925 219.534,486.757 219.534,486.218 231.256,482.275 
		231.256,482.814 231.756,482.646 231.756,484.078 231.256,484.245 231.256,490.99 231.558,490.888 231.558,490.003 
		231.984,489.859 231.984,489.4 242.003,486.028 242.003,486.488 242.429,486.345 242.429,487.569 242.003,487.712 242.003,493.475 
		242.707,493.24 242.707,493.912 249.104,491.76 249.104,494.383 255.665,492.176 255.665,488.62 256.649,488.289 256.649,472.446 
		256.897,472.362 256.897,485.007 258.696,487.601 266.489,484.979 266.489,477.657 273.975,475.139 273.975,474.35 
		274.799,474.073 274.799,467.328 274.301,467.497 274.301,466.065 274.799,465.897 274.799,465.358 286.522,461.415 
		286.522,461.954 287.021,461.786 287.021,463.218 286.522,463.385 286.522,470.13 287.346,469.852 287.346,470.64 288.468,470.263 
		288.468,484.383 294.526,482.345 294.526,481.557 295.349,481.28 295.349,474.535 294.849,474.703 294.849,473.272 
		295.349,473.104 295.349,472.565 307.071,468.622 307.071,469.159 307.571,468.992 307.571,470.424 307.071,470.592 
		307.071,477.335 307.895,477.059 307.895,477.847 309.016,477.469 309.016,478.421 322.715,473.813 322.715,460.464 
		323.673,460.142 323.673,459.468 324.376,459.232 324.376,453.47 323.95,453.611 323.95,452.389 324.376,452.246 324.376,451.785 
		334.395,448.414 334.395,448.874 334.821,448.731 334.821,449.955 334.395,450.098 334.395,455.862 335.099,455.625 
		335.099,456.298 341.496,454.145 341.496,456.769 348.057,454.561 348.057,451.006 349.041,450.675 349.041,434.831 
		349.289,434.748 349.289,447.392 351.088,449.986 358.881,447.364 358.881,440.043 366.369,437.524 366.369,436.735 
		367.191,436.459 367.191,429.714 366.693,429.882 366.693,428.451 367.191,428.283 367.191,427.745 378.915,423.8 378.915,424.339 
		379.413,424.171 379.413,425.604 378.915,425.771 378.915,432.515 379.738,432.237 379.738,433.026 380.86,432.649 380.86,446.769 
		386.918,444.731 386.918,443.942 387.741,443.666 387.741,436.921 387.243,437.089 387.243,435.658 387.741,435.49 
		387.741,434.951 399.463,431.007 399.463,431.546 399.963,431.378 399.963,432.809 399.463,432.977 399.463,434.933 
		407.666,432.174 407.666,432.635 408.092,432.492 408.092,433.714 407.666,433.859 407.666,439.622 408.369,439.386 
		408.369,440.058 414.768,437.906 414.768,448.649 418.694,447.33 418.694,446.656 419.398,446.418 419.398,440.655 
		418.971,440.798 418.971,439.575 419.398,439.432 419.398,438.973 427.455,436.261 427.455,432.704 436.806,429.559 
		436.806,426.36 438.605,428.954 438.756,428.903 438.756,413.058 439.004,412.975 439.004,530.347 	"/>
</g>
<g>
	<defs>
		<rect id="SVGID_44_" x="-652.665" y="70.683" width="595.276" height="841.89"/>
	</defs>
	<clipPath id="SVGID_45_">
		<use xlink:href="#SVGID_44_"  overflow="visible"/>
	</clipPath>
	<g clip-path="url(#SVGID_45_)">
		<g>
			<defs>
				<rect id="SVGID_46_" x="-598.752" y="130.581" width="130.367" height="254.061"/>
			</defs>
			<clipPath id="SVGID_47_">
				<use xlink:href="#SVGID_46_"  overflow="visible"/>
			</clipPath>
			<g clip-path="url(#SVGID_47_)">
				<defs>
					<path id="SVGID_48_" d="M-468.384,140.608l-2.628,31.708c-7.194,86.805-54.42,165.303-127.739,212.326V184.185
						c0-7.236,4.753-14.691,10.617-16.651l22.254-7.439c1.41-0.471,2.65,0.265,3.04,1.806c1.494,5.888,6.231,8.702,11.617,6.901
						l35.311-11.803c5.386-1.8,10.123-7.781,11.617-14.667c0.391-1.802,1.63-3.367,3.04-3.839l22.254-7.438
						C-473.142,129.096-468.384,133.386-468.384,140.608"/>
				</defs>
				<clipPath id="SVGID_49_">
					<use xlink:href="#SVGID_48_"  overflow="visible"/>
				</clipPath>
				<defs>
					
						<filter id="Adobe_OpacityMaskFilter_4_" filterUnits="userSpaceOnUse" x="-726.524" y="63.912" width="385.913" height="385.913">
						<feColorMatrix  type="matrix" values="1 0 0 0 0  0 1 0 0 0  0 0 1 0 0  0 0 0 1 0"/>
					</filter>
				</defs>
				<mask maskUnits="userSpaceOnUse" x="-726.524" y="63.912" width="385.913" height="385.913" id="SVGID_50_">
					<g filter="url(#Adobe_OpacityMaskFilter_4_)">
						
							<linearGradient id="SVGID_51_" gradientUnits="userSpaceOnUse" x1="5.7174" y1="724.1204" x2="6.7174" y2="724.1204" gradientTransform="matrix(-135.409 -135.409 -135.409 135.409 98340.5859 -96973.8125)">
							<stop  offset="0" style="stop-color:#808080"/>
							<stop  offset="1" style="stop-color:#000000"/>
						</linearGradient>
						<polygon clip-path="url(#SVGID_49_)" fill="url(#SVGID_51_)" points="-533.568,449.825 -726.524,256.869 -533.568,63.912 
							-340.611,256.869 						"/>
					</g>
				</mask>
				
					<linearGradient id="SVGID_52_" gradientUnits="userSpaceOnUse" x1="5.7174" y1="724.1204" x2="6.7174" y2="724.1204" gradientTransform="matrix(-135.409 -135.409 -135.409 135.409 98340.5859 -96973.8125)">
					<stop  offset="0" style="stop-color:#FFFFFF"/>
					<stop  offset="1" style="stop-color:#FFFFFF"/>
				</linearGradient>
				<polygon clip-path="url(#SVGID_49_)" mask="url(#SVGID_50_)" fill="url(#SVGID_52_)" points="-533.568,449.825 
					-726.524,256.869 -533.568,63.912 -340.611,256.869 				"/>
			</g>
		</g>
	</g>
	<g opacity="0.5" clip-path="url(#SVGID_45_)">
		<g>
			<defs>
				<rect id="SVGID_53_" x="-598.752" y="130.581" width="130.367" height="159.328"/>
			</defs>
			<clipPath id="SVGID_54_">
				<use xlink:href="#SVGID_53_"  overflow="visible"/>
			</clipPath>
			<g clip-path="url(#SVGID_54_)">
				<defs>
					<path id="SVGID_55_" d="M-468.384,140.608l-7.335,22.161c-19.499,58.911-64.793,105.717-123.032,127.14V184.185
						c0-7.236,4.753-14.691,10.617-16.651l22.254-7.439c1.41-0.471,2.65,0.265,3.04,1.806c1.494,5.888,6.231,8.702,11.617,6.901
						l35.311-11.803c5.386-1.8,10.123-7.781,11.617-14.667c0.391-1.802,1.63-3.367,3.04-3.839l22.254-7.438
						C-473.142,129.096-468.384,133.386-468.384,140.608"/>
				</defs>
				<clipPath id="SVGID_56_">
					<use xlink:href="#SVGID_55_"  overflow="visible"/>
				</clipPath>
				<defs>
					
						<filter id="Adobe_OpacityMaskFilter_5_" filterUnits="userSpaceOnUse" x="-598.751" y="129.096" width="130.367" height="160.813">
						<feColorMatrix  type="matrix" values="1 0 0 0 0  0 1 0 0 0  0 0 1 0 0  0 0 0 1 0"/>
					</filter>
				</defs>
				<mask maskUnits="userSpaceOnUse" x="-598.751" y="129.096" width="130.367" height="160.813" id="SVGID_57_">
					<g filter="url(#Adobe_OpacityMaskFilter_5_)">
						
							<linearGradient id="SVGID_58_" gradientUnits="userSpaceOnUse" x1="2.9717" y1="724.5249" x2="3.9717" y2="724.5249" gradientTransform="matrix(0 -186.2935 -186.2935 0 134440.6875 856.102)">
							<stop  offset="0" style="stop-color:#808080"/>
							<stop  offset="1" style="stop-color:#000000"/>
						</linearGradient>
						<rect x="-598.751" y="129.096" clip-path="url(#SVGID_56_)" fill="url(#SVGID_58_)" width="130.367" height="160.813"/>
					</g>
				</mask>
				
					<linearGradient id="SVGID_59_" gradientUnits="userSpaceOnUse" x1="2.9717" y1="724.5249" x2="3.9717" y2="724.5249" gradientTransform="matrix(0 -186.2935 -186.2935 0 134440.6875 856.102)">
					<stop  offset="0" style="stop-color:#FFFFFF"/>
					<stop  offset="1" style="stop-color:#FFFFFF"/>
				</linearGradient>
				
					<rect x="-598.751" y="129.096" clip-path="url(#SVGID_56_)" mask="url(#SVGID_57_)" fill="url(#SVGID_59_)" width="130.367" height="160.813"/>
			</g>
		</g>
	</g>
	<polygon clip-path="url(#SVGID_45_)" fill="#FFFFFF" points="-491.87,141.994 -490.775,141.628 -490.775,144.865 -491.87,145.23 	
		"/>
	<polygon clip-path="url(#SVGID_45_)" fill="#FFFFFF" points="-493.603,143.474 -492.508,143.108 -492.508,145.443 
		-493.603,145.809 	"/>
	<polygon clip-path="url(#SVGID_45_)" fill="#FFFFFF" points="-495.336,144.955 -494.242,144.589 -494.242,146.023 
		-495.336,146.389 	"/>
	<polygon clip-path="url(#SVGID_45_)" fill="#FFFFFF" points="-497.069,146.435 -495.975,146.069 -495.975,146.602 
		-497.069,146.968 	"/>
	<polygon clip-path="url(#SVGID_45_)" fill="#FFFFFF" points="-479.002,140.929 -485.85,143.218 -485.85,139.982 -479.002,137.693 	
		"/>
	<polygon clip-path="url(#SVGID_45_)" fill="#FFFFFF" points="-478.142,139.833 -478.598,139.985 -478.598,138.367 
		-478.142,138.215 	"/>
	<g opacity="0.5" clip-path="url(#SVGID_45_)">
		<g>
			<defs>
				<rect id="SVGID_60_" x="-597.352" y="133.145" width="115.151" height="243.413"/>
			</defs>
			<clipPath id="SVGID_61_">
				<use xlink:href="#SVGID_60_"  overflow="visible"/>
			</clipPath>
			<g clip-path="url(#SVGID_61_)">
				<defs>
					<path id="SVGID_62_" d="M-482.201,133.145l-101.539,34.103c-8.133,2.732-13.612,10.352-13.612,18.931v190.379l14.348-166.092
						c1.097-12.705,8.338-24.071,19.39-30.436L-482.201,133.145z"/>
				</defs>
				<clipPath id="SVGID_63_">
					<use xlink:href="#SVGID_62_"  overflow="visible"/>
				</clipPath>
				<defs>
					
						<filter id="Adobe_OpacityMaskFilter_6_" filterUnits="userSpaceOnUse" x="-597.352" y="133.145" width="115.151" height="243.413">
						<feColorMatrix  type="matrix" values="1 0 0 0 0  0 1 0 0 0  0 0 1 0 0  0 0 0 1 0"/>
					</filter>
				</defs>
				<mask maskUnits="userSpaceOnUse" x="-597.352" y="133.145" width="115.151" height="243.413" id="SVGID_64_">
					<g filter="url(#Adobe_OpacityMaskFilter_6_)">
						
							<linearGradient id="SVGID_65_" gradientUnits="userSpaceOnUse" x1="-1.5609" y1="719.3777" x2="-0.5609" y2="719.3777" gradientTransform="matrix(118.0853 0 0 -118.0853 -423.9822 85202.7891)">
							<stop  offset="0" style="stop-color:#808080"/>
							<stop  offset="1" style="stop-color:#000000"/>
						</linearGradient>
						<rect x="-597.352" y="133.145" clip-path="url(#SVGID_63_)" fill="url(#SVGID_65_)" width="115.151" height="243.413"/>
					</g>
				</mask>
				
					<linearGradient id="SVGID_66_" gradientUnits="userSpaceOnUse" x1="-1.5609" y1="719.3777" x2="-0.5609" y2="719.3777" gradientTransform="matrix(118.0853 0 0 -118.0853 -423.9823 85202.7969)">
					<stop  offset="0" style="stop-color:#FFFFFF"/>
					<stop  offset="1" style="stop-color:#FFFFFF"/>
				</linearGradient>
				
					<rect x="-597.352" y="133.145" clip-path="url(#SVGID_63_)" mask="url(#SVGID_64_)" fill="url(#SVGID_66_)" width="115.151" height="243.413"/>
			</g>
		</g>
	</g>
</g>
<polygon fill="#FFFFFF" points="376.668,43.471 377.763,43.105 377.763,46.342 376.668,46.707 "/>
<polygon fill="#FFFFFF" points="374.935,44.951 376.03,44.585 376.03,46.92 374.935,47.286 "/>
<polygon fill="#FFFFFF" points="373.202,46.431 374.296,46.066 374.296,47.5 373.202,47.866 "/>
<polygon fill="#FFFFFF" points="371.469,47.912 372.563,47.546 372.563,48.079 371.469,48.445 "/>
<polygon fill="#FFFFFF" points="389.535,42.406 382.687,44.695 382.687,41.459 389.535,39.17 "/>
<polygon fill="#FFFFFF" points="390.395,41.309 389.939,41.461 389.939,39.843 390.395,39.691 "/>
</svg>
