<?xml version="1.0" encoding="utf-8"?>
<!-- Generator: Adobe Illustrator 17.0.0, SVG Export Plug-In . SVG Version: 6.00 Build 0)  -->
<!DOCTYPE svg PUBLIC "-//W3C//DTD SVG 1.1//EN" "http://www.w3.org/Graphics/SVG/1.1/DTD/svg11.dtd">
<svg version="1.1" id="Layer_1" xmlns="http://www.w3.org/2000/svg" xmlns:xlink="http://www.w3.org/1999/xlink" x="0px" y="0px"
	 width="960px" height="560px" viewBox="0 0 960 560" enable-background="new 0 0 960 560" xml:space="preserve">
<linearGradient id="SVGID_1_" gradientUnits="userSpaceOnUse" x1="9.2709" y1="35.0408" x2="895.93" y2="498.4114">
	<stop  offset="0" style="stop-color:#4C3C43"/>
	<stop  offset="0.2863" style="stop-color:#3B343B"/>
	<stop  offset="0.7075" style="stop-color:#282C31"/>
	<stop  offset="1" style="stop-color:#21292D"/>
</linearGradient>
<path fill="url(#SVGID_1_)" d="M974,544.791V15.209C974,2.943,962.544-7,948.412-7H7.588C-6.544-7-18,2.943-18,15.209v529.582
	C-18,557.057-6.544,567,7.588,567h940.824C962.544,567,974,557.057,974,544.791z"/>
<path fill="#E12027" d="M711.244,491.363c-64.751-2.148-119.273-16.636-163.696-59.424c-39.886-38.418-48.808-91.447-32.85-139.892
	c16.651-50.55,51.68-91.308,101.802-118.9c35.091-19.317,72.568-35.011,110.494-49.635C756.38,112.181,851.068,49.708,860.127-7
	c-0.001,0-161.629,0.003-177.602,0.003c11.075,37.995-4.05,86.452-42.752,123.116C584.256,168.711,508.474,165.324,440.964,280
	c-76.282,129.579,59.47,282.928,112.83,287c0.003,0,394.618,0,394.618,0c14.132,0,25.588-9.943,25.588-22.209V404.223
	C911.925,458.956,797.472,494.224,711.244,491.363z"/>
</svg>
